<?xml version="1.0" encoding="utf-8"?>
<!-- Generator: Adobe Illustrator 21.0.2, SVG Export Plug-In . SVG Version: 6.00 Build 0)  -->
<svg version="1.1" id="Layer_1" xmlns="http://www.w3.org/2000/svg" xmlns:xlink="http://www.w3.org/1999/xlink" x="0px" y="0px"
	 viewBox="0 0 300 122" style="enable-background:new 0 0 300 122;" xml:space="preserve">
<style type="text/css">
	.st0{fill:#FFFFFF;}
</style>
<g>
	<g>
		<path class="st0" d="M75.1,50.8c-0.4-2,0.5-3.7,0.8-5.6c0.1-0.7,0.9-1.7-0.6-1.9c-1.1-0.1-2.2-0.3-2.4,1.3c-0.2,1.5-0.7,3-0.8,4.5
			c-0.1,1.3-0.8,1.6-1.9,1.7c0-1.1,0-2.2,0-3.3c1.6-2.3,1.3-5.1,1.9-7.7c1.1-4.6,2.7-5.5,7.3-3.7c-0.2,1.3-0.4,2.7-0.7,4l0,0
			c-0.1,0.2-0.2,0.5-0.2,0.7c-0.1,0.7-0.1,1.3-0.2,2c-0.5,0.6-0.5,1.2-0.5,1.9c-0.1,0.6-0.3,1.1-0.4,1.7c0,0.2,0,0.4-0.1,0.5
			c0,0.2,0,0.4-0.1,0.6c-0.2,0.7-0.3,1.5-0.5,2.2c-0.2,0.4-0.4,0.7-0.6,1.1C75.8,50.9,75.5,50.9,75.1,50.8z M77.1,39.1
			c0.2-0.9,0.2-1.5-1.1-1.7c-2.4-0.2-1.9,1.7-2.4,2.9c-0.3,1,0.2,1.2,1.1,1.3C76.9,42,76.9,40.4,77.1,39.1z"/>
		<path class="st0" d="M120.4,62.2c-0.1,0.4-0.1,0.7-0.2,1.1c-0.9,0.5-0.3,1.5-0.6,2.2c-0.2,0.1-0.3,0.3-0.2,0.5
			c-0.3,0.9-0.6,1.9-0.9,2.8c-0.1,0-0.2,0.1-0.1,0.2c-0.6,0.5-0.4,1.9-1.5,1.6s-0.6-1.3-0.6-2.1c0-1.8,0-3.5,0-5.3
			c-0.8,1.6-1.9,3.1-2.1,4.9c-0.3,0.6-0.5,1.1-0.8,1.7c-0.4,0.4-0.6,1-1.3,0.8c-0.7-0.2-0.7-0.8-0.6-1.3c0.1-1.3,0.2-2.5,0.3-3.8
			c0.3-2.8,0.5-5.5,0.8-8.3c0.1-0.6,0-1.3,0.9-1.4c0.6,0,0.7,0.4,0.8,0.9c0,0.4-0.2,0.8-0.1,1.1c0.6,1.3-1.5,2.6,0.1,3.8
			c0.6-1.4,1.6-2.6,1.6-4.2c0.2-0.1,0.4-0.2,0.6-0.4c1.5-0.9,1.7,0,1.7,1.2c0,1.6,0,3.3,0,4.9c0.8-1.8,1.9-3.4,2-5.4
			c0.7-0.4,0.5-1.1,0.6-1.7c3.3,0,0.7,1.9,0.9,2.8c0,0.3,0,0.5,0.1,0.8C120.5,60.1,121,61.4,120.4,62.2z"/>
		<path class="st0" d="M118.5,36.3c-0.2,1.3-0.4,2.6-0.6,3.9c-0.1,0.3-0.2,0.6-0.3,0.9c-0.1,0.6-0.2,1.3-0.2,1.9
			c-0.8,2.4-1.4,4.9-1.6,7.4l-0.1,0.2c-0.2,0-0.3,0.1-0.4,0.2c-1.4,0-1.1-1.4-1.6-2c-0.1-0.7-0.3-1.3-0.4-2
			c-0.1-0.3-0.2-0.5-0.2-0.8c-0.9-0.9,0-2.3-0.9-3.4c-0.9,1.6-1.4,3.3-1.2,5.1c-0.2,0.6-0.5,1.2-0.2,1.8c-0.1,0.3-0.2,0.6-0.3,0.9
			c-0.2,0.2-0.4,0.4-0.6,0.6c-0.3,0-0.6-0.1-0.9-0.1c-0.1-0.7-0.1-1.4-0.2-2.1c0.5-0.9,0.6-2,0.7-3c0.5-1,0.5-2.1,0.5-3.3
			c0.4-0.4,0.5-0.9,0.4-1.4c0.1-0.4,0.1-0.7,0.2-1.1c0.1-0.4,0.2-0.8,0.3-1.2c0.1-0.5,0.1-1,0.2-1.4c0.1-0.2,0.1-0.5,0.2-0.7
			c0.4-0.4,0.7-1.4,1.4-0.9c0.4,0.3,0.4,1.3,0.6,2c0.3,1.6,0.7,3.2,1,4.8c0.1,0.4,0.2,0.7,0.6,0.6c0.2,0,0.5-0.3,0.5-0.5
			c-0.3-1.5,1.3-2.8,0.4-4.4c0.2-1,0.6-1.9,1.2-2.7c0.3,0,0.7,0.1,1,0.1l0,0C118.1,35.8,118.3,36.1,118.5,36.3z"/>
		<path class="st0" d="M137.3,55.6c1.4,0,2.8,0.1,4.2,0.1c1,1,0,2.1,0.3,3.2c-0.1,0.4-0.1,0.7-0.2,1.1c-1.7,3.1-1.2,6.7-2,10
			c-0.1,0.3-0.1,0.5-0.2,0.8c-1.4,0.5-1.8-0.2-1.5-1.5c0.2-1,0.7-2,0.5-3.1c0-0.2,0-0.4,0.1-0.6c0.4-1.2,0.3-2.1-1.3-2.1
			c-1.6-0.1-1.5,1.1-1.5,2.1c0,0.3-0.1,0.5-0.1,0.8c-0.1,0.3-0.2,0.6-0.2,0.8c-0.2,0.7-0.3,1.4-0.5,2.1c-0.1,0.5-0.3,1.1-0.4,1.6
			l0,0c-0.3,0-0.7,0.1-1,0.1c-0.2-0.4-0.4-0.7-0.6-1.1c0.1-0.7,0.3-1.5,0.4-2.2c0.1-0.7,0.3-1.4,0.4-2.1c0.1-0.7,0.3-1.5,0.4-2.2
			c0.1-0.2,0.2-0.3,0.2-0.5c0-0.1-0.1-0.2-0.1-0.2c0.1-0.3,0.2-0.6,0.3-0.9c0.1-0.6,0.2-1.2,0.2-1.9c0.4-0.4,0.5-0.9,0.4-1.4
			c0.2-0.8,0.5-1.6,0.7-2.4C136.2,55.8,136.8,55.7,137.3,55.6z M139.9,58.8c0.2-1.3-0.7-1.2-1.4-1.2c-2.4-0.2-1.8,1.9-2.2,3.1
			c-0.3,0.9,0.4,1.1,1.1,1C139.4,61.7,139.6,60.1,139.9,58.8z"/>
		<path class="st0" d="M88.2,40c-0.2,0.1-0.2,0.3-0.1,0.5c-0.1,0.6-0.2,1.1-0.3,1.7c-0.6,2.4-1.2,4.8-1.3,7.3
			c-0.5,0.5-1,0.9-1.5,1.4c-0.4,0-0.7,0.1-1.1,0.1s-0.7,0-1.1,0c-0.5,0-1.1,0-1.6,0c-0.6-0.2-1.3-0.4-1.6-1.1c0.1-0.1,0.1-0.2,0-0.3
			c0.5-0.6,0.5-1.2,0.4-1.9c0.2-1.1,0.4-2.2,0.6-3.3c0.1-0.4,0.2-0.8,0.3-1.1c0.2-1.1,0.4-2.2,0.6-3.3c0.3-1.3,0.6-2.5,0.8-3.8
			c1.5-1,3.2-0.3,4.8-0.5c0.1,0.2,0.2,0.2,0.4,0.2h0.1c0.3,0.4,0.6,0.7,1,1.1c0,0.4-0.1,0.9-0.1,1.3C88.5,38.8,88.4,39.4,88.2,40z
			 M86.4,40c0.2-1.5,0.5-2.3-0.7-2.4c-1.1-0.1-2,0-2.2,1.4c-0.5,2.7-1,5.4-1.5,8.1c-0.1,0.7-1,1.9,0.6,2.1c1.3,0.2,2.1-0.3,2.3-1.7
			C85.4,44.7,86,42,86.4,40z"/>
		<path class="st0" d="M136.7,41.1c-0.1,0.5-0.3,1.1-0.4,1.6c0,0.4-0.1,0.8-0.1,1.2c-0.3,1.3-0.9,2.5-0.7,3.9
			c-0.2,0.7-0.4,1.4-0.6,2.1c-0.5,0.4-1,0.8-1.5,1.1c-0.5,0-1.1,0-1.6,0c-0.4,0-0.7,0-1.1,0c-0.2,0-0.4,0-0.6-0.1s-0.4-0.2-0.7-0.3
			h-0.1c0.1-0.1,0.1-0.2,0-0.3c-0.1-0.9-0.2-1.7-0.3-2.6c0.2-1.2,0.4-2.3,0.7-3.5c0.1-0.3,0.2-0.6,0.3-0.9c0.1-0.5,0.1-1,0.2-1.5
			c0.5-0.5,0.5-1.2,0.4-1.8c0.1-0.3,0.1-0.7,0.2-1c0.1-0.4,0.2-0.8,0.3-1.2c0.1-0.5,0.2-1,0.3-1.6c0.4-0.4,0.8-0.6,1.3-0.4
			c0.8,0.6,0.5,1.4,0.3,2c-1.2,2.9-1,6.1-1.9,9c-0.2,0.7-0.7,1.5,0.4,1.8c1,0.3,1.6-0.5,1.8-1.2c0.7-2.8,1.3-5.7,1.7-8.5
			c0.1-0.9,0.6-1.7,0.8-2.5c0.1-0.7,0.8-0.8,1.3-0.6c0.8,0.3,0.6,0.9,0.3,1.5c0,0.6-0.1,1.1-0.1,1.7c0,0.3-0.1,0.5-0.1,0.8
			C136.7,40,136.7,40.5,136.7,41.1z"/>
		<path class="st0" d="M152.3,70.3c-0.1-0.3-0.2-0.7-0.3-1c0.2-0.6,0.3-1.3,0.5-1.8c0.3-0.8-0.4-2.5,1.2-2.2
			c1.3,0.2,0.5,1.5,0.4,2.3s-0.3,1.5,0.8,1.6c0.8,0,1.8,0.2,2.1-0.8c0.3-1.2,0.6-2.5,0.8-3.7c0.2-1-0.4-1.4-1.2-1.3
			c-2.8,0.5-3.3-1.1-2.9-3.4c0.1-0.1,0.2-0.3,0.1-0.5c0.4-0.5,0.4-1.1,0.4-1.7c0.1-0.3,0.1-0.5,0.2-0.8c0.5-0.4,1-0.9,1.5-1.3
			c1.3,0,2.5,0,3.8,0c0.4,0.3,0.8,0.7,1.1,1c0,0.4,0.1,0.7,0.1,1.1c-0.1,0.5-0.2,1-0.3,1.6l0,0c-0.1,0.2-0.2,0.4-0.3,0.6
			c-0.2,1-0.9,1.1-1.8,0.9c0-0.4,0-0.7,0-1.1c0-0.8,1.2-2-0.8-2.2c-1.2-0.1-1.8,0.2-2.3,1.6c-1,3.4,1.4,2.3,3,2.5
			c1.2,1.8,0.7,7.4-0.8,8.6c-1.5,1.2-3.3,0.3-5,0.6C152.7,70.7,152.5,70.5,152.3,70.3z"/>
		<path class="st0" d="M142.7,35.6c0.8,0.1,1.6,0.4,2.4-0.2l0,0c0.4,0,0.8,0,1.2,0l0,0c1.2,0.9,0.7,2.1,0.7,3.3
			c-0.7,1.3-0.5,2.9-1.7,4.1c-0.5,0.4-0.1,1,0.5,1.2c0,0.4,0,0.8,0,1.2c-1.3,0.6-0.8,1.6-0.7,2.6c-0.1,0.2-0.2,0.4-0.3,0.6
			c-0.3,0-0.5,0.1-0.4,0.5c-0.1,0.7,0.1,1.7-0.8,2.1c-0.5,0.2-0.9-0.4-1-1c0.5-2,1.7-3.9,0.6-6.1c-1.2-0.8-1.8-0.2-2.2,1
			c-0.6,1.7-1,3.4-1.3,5.2c-0.1,0.6-0.5,2.5-1.7,0.5c0.1-0.9,0.2-1.8,0.3-2.7l0,0c0.6-0.7,0.5-1.5,0.5-2.2c0-0.3,0.1-0.6,0.1-0.9
			c0.1-0.4,0.2-0.9,0.3-1.3c0.1-0.5,0.2-0.9,0.2-1.4c0.4-0.4,0.4-0.9,0.4-1.4c0.1-0.4,0.1-0.9,0.2-1.3c0.4-0.4,0.4-0.9,0.3-1.4
			c0.1-0.5,0.2-1,0.3-1.6C141.4,36,142.1,35.8,142.7,35.6z M141.7,40.1c-0.1,0.7-0.4,1.5,0.8,1.6c2,0.1,2.2-1.4,2.6-2.9
			c0.3-1.2-0.3-1.1-1-1.3C141.9,37.2,142.1,38.9,141.7,40.1z"/>
		<path class="st0" d="M127.9,71c-0.7,0-1.5,0-2.2,0c-0.4,0-0.7,0-1.1,0c-0.2-0.2-0.5-0.4-0.7-0.6c-0.1-0.2-0.3-0.4-0.4-0.6
			c0-0.5,0-1.1,0-1.6c0.6-0.8,0.6-1.8,0.5-2.8c0-0.3,0.1-0.6,0.1-0.8c0.6-0.9,0.6-2,0.6-3c0.3-1.5,0.6-3,0.9-4.4
			c0.2-0.4,0.4-0.7,0.6-1.1c0.2-0.1,0.3-0.2,0.5-0.3l0,0c0.5-0.1,1.1-0.1,1.6-0.2c0.2,0,0.4,0,0.6,0c0.7,0.1,1.4,0.2,2.1,0.3
			c0.6,0.9,0.5,1.9,0.6,3l0,0c-0.5,0.7-0.5,1.5-0.5,2.3c-0.4,0.5-0.5,1.1-0.4,1.7c-0.2,0.7-0.3,1.4-0.5,2.1
			c-0.1,0.6-0.2,1.2-0.2,1.8c-0.2,0.6-0.3,1.1-0.5,1.7c-0.1,1-0.5,1.8-1.2,2.5C128.3,70.8,128.1,70.9,127.9,71z M125.5,67.6
			c-0.3,0.9-0.4,1.5,0.6,1.5c0.9,0,1.6-0.1,1.8-1.1c0.5-2.9,1.1-5.7,1.7-8.6c0.1-0.7,0.9-1.6-0.6-1.9c-1.1-0.1-1.6,0.3-1.8,1.4
			C126.6,62,126,64.9,125.5,67.6z"/>
		<path class="st0" d="M146.5,55.8c1,1.9-0.6,3.8-0.2,6.1c1.3-1.3,2-2.6,2.5-4c0.5-0.3,0.7-0.8,0.8-1.4v-0.1
			c0.1-0.2,0.3-0.4,0.4-0.7v0.1h0.2l0.2-0.1c0.1,0.1,0.2,0.1,0.4,0c0.2,0.2,0.5,0.3,0.7,0.5c0,0.3,0,0.7,0,1
			c-0.2,0.4-0.5,0.7-0.7,1.1l0,0c-0.2,0.4-0.4,0.7-0.6,1.1l0,0c-0.1,0.2-0.3,0.5-0.4,0.7c-0.2,0.1-0.3,0.3-0.3,0.5
			c-0.9,0.8-0.6,1.4,0.3,1.9c0,0.2,0.1,0.3,0.2,0.4c-0.4,2.2-0.7,4.4-1.1,6.5c-0.2,1-0.5,1.9-1.7,1.4c-1.7-0.7,0.3-1.6-0.1-2.4
			c0.1-0.4,0.2-0.8,0.3-1.2c0.2-0.9,0.4-1.8,0.6-2.7c0.5-1.1-0.2-1.1-1-0.9c-0.4,0-0.7,0-1.1,0c-0.3-0.1-0.4,0-0.3,0.3
			c-1.2,2.2-0.3,5.1-2.3,7.1c-0.2-0.2-0.5-0.3-0.7-0.5l0,0c0.5-3.3,1.1-6.6,1.6-9.9c0.8-1.6,0.2-3.6,1.7-4.9
			C146.2,55.7,146.4,55.8,146.5,55.8z"/>
		<path class="st0" d="M149.2,42.2c0.1-0.8,0.2-1.6,0.3-2.4c0.4-0.4,0.4-0.9,0.4-1.4c0.1-0.1,0.2-0.2,0.1-0.3
			c0.2-0.6,0.3-1.2,0.5-1.9c1.6-0.7,3.2-0.3,4.9-0.4c0.6,0,1.4-0.1,1.5,0.8c0.1,1.1-0.8,1.1-1.5,1c-1.9-0.1-3.7-0.3-3.8,2.5
			c0,0.9-0.2,1.6,1.1,1.6c0.7,0,1.6-0.1,1.5,1c-0.1,1-0.9,0.6-1.5,0.7c-1.6,0.2-3.7,3.6-3,5.2c0.5,1.2,1.6,0.5,2.4,0.6
			c0.7,0.1,1.6,0,1.5,1c0,0.8-0.9,1-1.4,0.8c-1.6-0.4-4.5,1.6-4.3-2.2c0.8-1.4,1.1-2.8,1-4.4c0-0.4,0.1-0.8,0.1-1.1
			C149.2,43,149.3,42.6,149.2,42.2z"/>
		<path class="st0" d="M105.6,43.2c-0.1,0-0.2,0.1-0.3,0.2c-2.8,0-4.8,2.7-3.9,5.4c0.2,0.5,0.7,0.4,1.2,0.3c0.7,0,1.5,0,2.2,0.1
			c0.2,0.1,0.3,0.2,0.5,0.3c0.1,1-0.4,1.4-1.4,1.4S102,51,101,51c-0.4,0-0.9-0.1-1.3-0.1c0-0.2-0.1-0.3-0.3-0.4
			c0.1-0.7,0.1-1.4,0.2-2.1h-0.1c0.6-0.7,0.5-1.5,0.4-2.3c0-0.3,0.1-0.5,0.1-0.8c0.4-0.4,0.5-0.9,0.4-1.4c0-0.5,0.1-0.9,0.1-1.4
			c0.1-0.3,0.2-0.6,0.3-0.8c0.1-0.5,0.2-1.1,0.3-1.6c0.1-0.6,0.2-1.1,0.3-1.7c0.1-0.5,0.2-1.1,0.3-1.6c0.3-0.3,0.6-0.7,0.9-1
			c0.6,0,1.1-0.1,1.7-0.1c0.2,0,0.4,0,0.5,0c1.2,0.4,2.5-0.3,3.6,0.5c0,0.3,0,0.7,0,1c-1.3,0.9-2.8,0.1-4.2,0.6
			c-0.4-0.1-0.7,0.1-0.8,0.5c-0.1,0.7-0.3,1.5-0.4,2.2c-0.2,2.3,1.6,0.7,2.3,1.1l0,0C105.4,42.1,105.5,42.7,105.6,43.2z"/>
		<path class="st0" d="M94.9,46c-0.1,0.1-0.2,0.2-0.1,0.4c-0.3,0.6-0.5,1.2-0.8,1.8c-0.6,1.1-1,2.3-2.1,3.1l0,0
			c0.3-0.5-0.1-0.7-0.4-1c0-1.1,0-2.2,0-3.3c0-0.4,0-0.8,0-1.1c0-1.8,0.1-3.7,0.1-5.5c0-0.4,0-0.7,0-1.1c0-0.6,0-1.1,0-1.7
			c0.2-0.7,0.4-1.4,0.5-2.1c1.4,0,1.6,0.7,1.3,1.9c-0.4,1.7-0.6,3.4,0.5,5.8c1-2.5,1.8-4.4,2.5-6.3c0.2-0.1,0.2-0.3,0.2-0.5
			c0.1-0.2,0.2-0.4,0.3-0.6c0.1-0.1,0.2-0.2,0.2-0.4c0.5,0.2,1,0.3,1.5,0.5c-0.1,0.5-0.2,1.1-0.4,1.6c-0.5,0.6-0.8,1.3-0.8,2.1
			c-0.1,0.3-0.3,0.6-0.4,0.9c-0.4,0.3-0.5,0.8-0.5,1.3c-0.2,0.5-0.4,1-0.6,1.4c-0.4,0.3-0.5,0.8-0.5,1.3l0,0
			C95,45.2,94.9,45.5,94.9,46z"/>
		<path class="st0" d="M123.9,46L123.9,46v0.2c-0.7,0.9-0.6,2-0.7,3c-0.1,0.4-0.1,0.8-0.2,1.2c-2.2,1-1.7-0.6-1.7-1.7
			c0-0.3,0.1-0.5,0.1-0.8C122,47,121.9,46,122,45l-0.1-0.1c0.6-0.6,0.4-1.5,0.6-2.3c0.2-1,0.3-2,0.5-3c0.7-1.4,0.8-2.4-1.3-2.1
			c-0.6-0.7-0.6-1.3,0-2c0.5,0,1.1,0,1.6-0.1c1.4,0.1,2.8,0.3,4.2-0.2l0,0c0.4,0.2,0.8,0.5,1.2,0.7c0,0.4,0,0.7,0,1.1l-0.1,0.2
			c-1.9,0.2-4.4-0.2-3.8,3.1c-0.1,0.6-0.2,1.1-0.4,1.7C124.1,43.4,123.9,44.7,123.9,46z"/>
	</g>
	<path class="st0" d="M201.9,92c-6.3,4.1-12.6,4.1-18.8,0c-5.1-3.3-5.3-9-0.6-12.9c4.9-4.1,14.3-4.3,19.3-0.5
		c0.8,0.6,2.2,1.1,0.8,2.5c-0.9,0.9-1.2,2.6-3.3,1.2c-4.2-2.9-7.5-2.6-10.4,0.3c2.1,1,4.5,0.8,6.6,1.4c0.8,0.2,1.7,0.1,1.7,1.3
		c0,1.3-1.1,1-1.8,1.2c-2.1,0.4-4.3,0.8-6.5,1.2c2.1,2.9,6.2,3.5,9.6,1.2c1.7-1.1,2.9-2.1,4.2,0.4c0.8,1.6,1.5,0.5,2.1-0.4
		c2.3-4,4.7-8,7-12.1c0.7-1.3,1.3-1.5,2.6-0.6c3.3,2.3,6.8,4.3,9.5,7.5c2.4,2.9,2.9,5.7,1.3,8c-2.1,2.9-5.1,3.8-8.7,2.4
		c-0.8-0.3-1.6-0.5-1.6-1.6c0-0.9,0.5-1.3,1.4-1.3c0.2,0,0.6-0.3,0.6-0.4c-0.6-2.1-2.7-2.5-4.1-3.7c-0.9-0.9-1.2,0.2-1.6,0.7
		c-0.7,1.1-1.5,2.2-1.9,3.3c-1,3.4-3.7,2.8-6.2,2.8c-1.4,0-0.7-0.9-0.6-1.5c0.1-0.2,0.2-0.4,0.3-0.6C202.4,92,202.2,92,201.9,92z"/>
	<path class="st0" d="M241.6,44.5c-0.2,0-0.3,0-0.4,0.2c-0.4,0.1-0.8,0.3-1.1,0.4l0,0c-0.5,0-0.8,0.1-1.1,0.5
		c-1.4,0.2-2.6,0.9-3.9,1.6c-0.3,0.2-0.6,0.3-0.9,0.5c-0.2,0.1-0.5,0.2-0.7,0.2c-0.4,0-0.8,0.1-1.1,0.5l0,0
		c-0.3,0.1-0.6,0.3-0.9,0.4h-0.1l-0.1,0.1c-0.5,0-0.9,0.1-1.1,0.6l0,0c-2.7,1-5.3,2.4-7.8,3.8c-0.2-0.1-0.3,0-0.4,0.1
		c-0.7,0.1-1.5,0.3-2.2,0.4c-0.4-0.1-0.7-0.2-1.1-0.3c-0.6-0.4-0.7-1.1-0.7-1.8c0.1-0.1,0.2-0.2,0.2-0.4c1-0.6,2-1.3,3.1-1.7
		c3.9-1.2,7.2-3.4,10.6-5.5c0.8-0.2,1.6-0.6,2.2-1.2c0.6-0.3,1.3-0.7,1.9-1c0.7-0.3,1.4-0.6,2-0.9c0.9-0.3,1.7-0.6,2.4-1.3h0.1
		l0.1-0.1c0.5,0,0.9-0.1,1.2-0.5l0,0c0.4-0.2,0.9-0.4,1.3-0.5c6.9-2.5,13.9-4.7,21.3-4.4c6.1,0.2,12,0.9,17.6,3.7
		c1.7,0.8,3.1,1.9,4.2,3.5c0.8,1.2,1.1,2.6,0.2,3.8c-1,1.2-2.3,1.8-3.9,1.3c-2-0.6-3.6-1.7-5.4-2.7c-7.7-4.4-15.8-5.4-24.3-3
		c-0.4,0.1-0.8,0.2-1.1,0.3c-0.6,0.1-1.1,0.3-1.7,0.4c-2.4,0.5-4.7,1.2-6.8,2.3c-0.3,0.1-0.5,0.2-0.8,0.2
		C242.1,44.3,241.9,44.4,241.6,44.5z"/>
	<path class="st0" d="M204.8,40.1c2.9,2.8,5.9,5.5,8.8,8.3c1.1,1.1,1.8,2.2,0.5,3.5c-1.2,1.2-2.5,1.3-3.9,0.1
		c-2.9-2.7-5.8-5.4-8.6-8c-0.7-0.9-1.5-1.6-2.5-2.1c-1.3-1.3-2.5-2.6-3.8-3.9c-2.3-2.2-2.3-2.7,0.1-4.7c0.7-0.6,1.4-1.1,2.5-2.1
		c-3.6,0-6.7-0.1-9.8,0c-2,0.1-2.9-0.2-2.8-2.6c0.3-5.1,0.1-5.1,5.3-5c5.8,0.1,11.7,0.2,17.5,0.4c1.4,0,2.9,0.1,3.4,1.7
		c0.5,1.8-0.4,3-1.8,3.9c-2.2,1.4-4.4,2.9-6.6,4.3c-3.2,2.1-3.2,2.2,0.2,4.4C203.5,39.1,204.1,39.6,204.8,40.1z"/>
	<path class="st0" d="M167.2,78c0-4.7,0.1-9.3,0-14c0-1.5,0.4-2,2-2c7-0.1,7-0.1,7,6.9c0,7.7-0.1,15.4,0,23.1c0,1.8-0.4,2.3-2.3,2.3
		c-6.7,0-6.7,0-6.7-6.6C167.2,84.4,167.2,81.2,167.2,78z"/>
	<path class="st0" d="M114.2,78.7c0.2-1.1,0.1-1.9,1.9-2c8.2-0.1,8.2-0.2,12.6,6.8c0.3,0.5,0.6,0.9,1.1,1.6c1-1.7,2-3.2,2.9-4.7
		c2.4-4,2.4-4,7.9-3.4c-3.3,5.5-6.5,10.8-9.8,16.2c-1.1,1.8-2.5,3.5-3.3,5.4c-1.5,3.8-4.3,4.3-8.1,3.4c1.4-2.3,2.7-4.6,4.1-6.8
		c0.5-0.8,0.9-1.5,0.3-2.5c-2.9-4.5-5.8-9.1-8.8-13.6c0-0.1-0.3,0-0.5,0l0.1,0.1C115,78.6,114.9,78.3,114.2,78.7L114.2,78.7z"/>
	<path class="st0" d="M153.7,76c3.1-0.1,6.2,0.8,9,2.4c1.3,0.7,2.1,1.5,0.7,3c-1,1-1.3,3-3.5,1.3s-4.7-2.5-7.4-1.4
		c-2,0.8-3.6,2.1-3.3,4.5c0.3,2.3,2,3.5,4.1,3.9c2.3,0.4,4.6,0.3,6.5-1.3c2.2-1.8,2.9-0.1,4,1.3c1.4,2-0.7,2.1-1.5,2.6
		c-5.5,3.8-13.2,3.5-18.5-0.6c-4.4-3.4-4.5-8.6-0.4-12.2C146.3,76.9,149.7,75.9,153.7,76z"/>
	<path class="st0" d="M114.7,79.2c0.1,1.7-1.2,2.8-2.1,3.9s-1.6-0.2-2.3-0.6c-2.3-1.5-4.6-2.2-7.3-1.2c-2.1,0.8-3.5,2.1-3.2,4.5
		c0.3,2.3,2,3.5,4.1,3.9c2.3,0.4,4.6,0.3,6.5-1.3c2.2-1.8,2.9,0,3.9,1.4c1.4,1.9-0.6,1.9-1.3,2.5c-5.2,3.6-12.3,3.7-17.6,0.3
		c-6.1-3.9-6-10.7,0.2-14.3c5.4-3.2,11-2.8,16.6-0.3c0.6,0.3,1.1,1,2,0.8l-0.1-0.1C114.1,79.1,114.2,79.4,114.7,79.2L114.7,79.2z"/>
	<path class="st0" d="M234.2,50.1c1.8-0.8,3.6-1.5,5.5-2.3c0.5,0,0.9,0,1.2-0.4c0.2,0,0.3,0,0.4-0.1c0.4,0,0.9,0,1.2-0.4l0,0
		c0.9-0.1,1.9,0,2.7-0.6c0.5-0.1,1.1-0.1,1.6-0.2c0.3-0.1,0.5-0.2,0.8-0.4l0.1,0.1l0.2-0.1c0.2,0,0.4,0,0.5-0.1
		c3.7-0.1,7.3,0.3,10.8,1.6c1.9,0.7,3.6,1.9,4.2,4c0.4,1.3,0.1,2.5-1,3.5c-1,0.8-2.1,0.5-3-0.1c-1.6-1-3.2-2.2-4.9-2.9
		c-6.9-3-13.4-1.2-19.8,1.6c-3.7,1.7-7.2,4-11.5,4.3c-1.4,0.1-3.2,0.4-2.8-2c1-0.3,2-0.7,3-1c0.5-0.1,0.9-0.1,1.4-0.2
		c2-0.1,3.5-1,5.1-2.1c0.7-0.4,1.4-0.7,2.1-1.1c0.4-0.2,0.8-0.4,1.2-0.6c0.2,0,0.4-0.1,0.5-0.2C233.8,50.3,234,50.2,234.2,50.1z"/>
	<path class="st0" d="M218.1,49.1c-1.3-1.7,0.3-2.3,1.3-2.8c2.9-1.6,5.6-3.5,8-5.7c2.5-2.3,3.9-5,3.5-8.5c-0.1-0.9-0.1-1.8-0.1-2.7
		c0-1.8,0.3-3.3,2.6-3.5c2.2-0.2,3.7,0.9,3.8,3c0.3,3.3-0.2,6.5-2.3,9.2c-0.3,0.4-0.6,0.9-0.9,1.4c-0.8,0.4-1.4,0.9-1.7,1.8
		c-0.6,0.2-1.2,0.6-1.5,1.2c-0.8,0.5-1.7,1.1-2.5,1.6C225,45.8,222,48.2,218.1,49.1z"/>
	<path class="st0" d="M171.9,23.4c0-3.5,2.6-6,6.1-6s6.3,2.6,6.3,5.9c0,3.4-2.9,6.3-6.4,6.2C174.6,29.4,171.9,26.8,171.9,23.4z"/>
	<path class="st0" d="M174.2,41.3c2-2.5,3.3-5.5,4.9-8.2c0.9-1.5,1.7-3.4,3.9-2.2c2.3,1.3,1.2,3.1,0.3,4.7c-1.1,1.9-2.2,3.8-3.4,5.7
		c-0.5,0.9-0.9,1.8-1.4,2.6c-0.7,1.1-1.5,2.2-2.2,3.4c-0.7,1.4-1.7,2.2-3.3,1.3c-1.5-0.8-1.6-2.1-0.7-3.5c0.3-0.5,0.5-1.1,0.8-1.7
		C173.8,42.9,174,42.1,174.2,41.3z"/>
	<path class="st0" d="M199,41.8c1,0.5,1.9,1.2,2.5,2.1c-2.8,1.9-2.9,4.9-3.1,7.7c-0.5,6.8,3.7,13.3,10,15.9c0.4,0.2,0.9,0.3,1.3,0.5
		c0.6,0.3,1.2,0.7,0.9,1.5s-1,0.8-1.8,0.6c-2.5-0.8-4.6-2.2-6.6-3.9c-6.3-5.8-7.9-14.6-4-22.4C198.6,43.2,198.8,42.5,199,41.8z"/>
	<path class="st0" d="M178.5,43.9c0.5-0.9,0.9-1.8,1.4-2.6c2.2,1.7,4.9,2.4,7,4.2c6.1,5,8.7,13.3,6.3,20.7c-0.3,0.8-0.5,2.1-1.7,1.8
		c-1.5-0.4-0.6-1.6-0.4-2.5c2.3-9.6-2.1-18.2-10.8-21.2C179.7,44,179.1,44,178.5,43.9z"/>
	<path class="st0" d="M174.2,41.3c-0.2,0.8-0.5,1.6-1.1,2.2c-6.2,0.5-10.5,3.9-13.5,9c-0.5,0.9-0.8,1.6-1.7,1.2
		c-1.3-0.5-0.6-1.5-0.2-2.3c2.6-4.8,6.5-8.1,11.7-9.6C170.9,41.4,172.6,41,174.2,41.3z"/>
	<path class="st0" d="M204.8,40.1c-0.6-0.5-1.3-1-1.6-1.8c4.3-4.4,9.7-4.8,15.4-4.1c0.7,0.1,1.3,0.4,1.2,1.2
		c-0.1,1.1-0.9,1.1-1.6,0.9c-3-0.7-6-0.4-8.9,0.7C207.6,37.6,205.6,38.1,204.8,40.1z"/>
	<path class="st0" d="M234.2,50.1c-0.2,0.1-0.4,0.3-0.6,0.4C233.8,50.3,234,50.2,234.2,50.1z"/>
</g>
</svg>
